<?xml version="1.0" encoding="UTF-8"?>
<!DOCTYPE svg PUBLIC "-//W3C//DTD SVG 1.1//EN" "http://www.w3.org/Graphics/SVG/1.1/DTD/svg11.dtd">
<!-- Creator: CorelDRAW X5 -->
<svg xmlns="http://www.w3.org/2000/svg" xml:space="preserve" width="210mm" height="297mm" style="shape-rendering:geometricPrecision; text-rendering:geometricPrecision; image-rendering:optimizeQuality; fill-rule:evenodd; clip-rule:evenodd"
viewBox="0 0 21000 29700"
 xmlns:xlink="http://www.w3.org/1999/xlink">
 <defs>
  <style type="text/css">
   <![CDATA[
    .fil1 {fill:#0079C2}
    .fil0 {fill:#FEFEFE}
   ]]>
  </style>
 </defs>
 <g id="Warstwa_x0020_1">
  <metadata id="CorelCorpID_0Corel-Layer"/>
  <polygon class="fil0" points="12862,13691 19918,13691 19918,6636 12862,6636 "/>
  <path class="fil1" d="M17683 11179c208,43 333,236 536,219 62,-5 525,-143 595,-176 -6,-127 -99,-445 -147,-582 -62,-180 -277,-267 -447,-337 -9,-451 228,-926 -209,-1725 -887,-1623 -3194,-1515 -3977,-63 -979,1814 537,3654 2281,3405 577,-82 1141,-405 1367,-740z"/>
  <path class="fil0" d="M16797 8569c-103,223 -282,541 -419,770 -159,265 -38,299 -133,467 -186,327 -716,2 -461,-319 128,-162 147,-16 295,-306 133,-259 342,-549 425,-802 -1801,-523 -2496,1726 -1179,2460 1281,714 2581,-757 1821,-1927 -57,-88 -66,-96 -142,-175 -136,-141 -93,-117 -207,-168z"/>
  <polygon class="fil0" points="16533,8363 16817,8541 17032,8156 16746,8006 "/>
  <path class="fil0" d="M15904 9767l202 18 30 -234c-209,-60 -322,-2 -231,217z"/>
 </g>
</svg>
