<?xml version="1.0" encoding="UTF-8"?>
<!DOCTYPE svg PUBLIC "-//W3C//DTD SVG 1.1//EN" "http://www.w3.org/Graphics/SVG/1.1/DTD/svg11.dtd">
<!-- Creator: CorelDRAW X5 -->
<svg xmlns="http://www.w3.org/2000/svg" xml:space="preserve" width="210mm" height="297mm" style="shape-rendering:geometricPrecision; text-rendering:geometricPrecision; image-rendering:optimizeQuality; fill-rule:evenodd; clip-rule:evenodd"
viewBox="0 0 21000 29700"
 xmlns:xlink="http://www.w3.org/1999/xlink">
 <defs>
  <style type="text/css">
   <![CDATA[
    .fil0 {fill:#231F20}
   ]]>
  </style>
 </defs>
 <g id="Warstwa_x0020_1">
  <metadata id="CorelCorpID_0Corel-Layer"/>
  <path class="fil0" d="M2847 10658c0,123 180,151 297,197l1104 448c506,201 966,401 1477,605l1477 609c226,84 179,-71 685,-240 248,-83 582,-136 922,-136 89,-169 412,-599 543,-797l839 -1207c53,-79 85,-114 134,-183 664,-936 364,-476 498,-1231 66,-371 187,-694 360,-981 499,-830 1456,-1563 2529,-1563 759,0 844,2 1548,287 267,108 644,388 861,586 179,164 486,610 603,844 923,1850 -276,4108 -2280,4412 -699,106 -407,-103 -1013,327 -187,133 -2292,1655 -2434,1693 0,1005 -463,1833 -1352,2247 -598,278 -1278,294 -1890,42 -651,-267 -1087,-727 -1330,-1386 -72,-195 -21,-279 -203,-361 -580,-261 -1690,-680 -2311,-934 -159,-65 -642,-280 -781,-313 134,575 572,1560 903,2061 987,1497 2240,2652 3940,3327 1644,653 3533,814 5283,363 525,-135 985,-318 1456,-520 1003,-429 2118,-1319 2823,-2152 91,-108 136,-146 226,-267 988,-1328 1739,-2915 1739,-4753 0,-1500 -168,-2545 -764,-3787 -1088,-2265 -3047,-3842 -5452,-4496 -1938,-527 -4158,-232 -5897,615 -1965,958 -3612,2914 -4234,5009 -119,400 -305,1162 -305,1636z"/>
  <path class="fil0" d="M11807 9177c0,675 200,1137 608,1544 623,623 1615,804 2426,396 264,-132 352,-192 556,-397 1609,-1619 -159,-4254 -2315,-3374 -688,281 -1274,1042 -1274,1830z"/>
  <path class="fil0" d="M8033 12810c243,332 1834,286 1834,1693 0,656 -618,1235 -1270,1235 -345,0 -1236,-378 -1552,-529 165,708 1708,1594 2850,522 1100,-1033 384,-3026 -1227,-3026 -289,0 -415,55 -635,106z"/>
 </g>
</svg>
