<?xml version="1.0" encoding="UTF-8"?>
<!DOCTYPE svg PUBLIC "-//W3C//DTD SVG 1.1//EN" "http://www.w3.org/Graphics/SVG/1.1/DTD/svg11.dtd">
<!-- Creator: CorelDRAW X5 -->
<svg xmlns="http://www.w3.org/2000/svg" xml:space="preserve" width="210mm" height="297mm" style="shape-rendering:geometricPrecision; text-rendering:geometricPrecision; image-rendering:optimizeQuality; fill-rule:evenodd; clip-rule:evenodd"
viewBox="0 0 21000 29700"
 xmlns:xlink="http://www.w3.org/1999/xlink">
 <defs>
  <style type="text/css">
   <![CDATA[
    .fil1 {fill:#010103}
    .fil0 {fill:#FEFEFE}
   ]]>
  </style>
 </defs>
 <g id="Warstwa_x0020_1">
  <metadata id="CorelCorpID_0Corel-Layer"/>
  <path class="fil0" d="M10403 2496c-1858,178 -3114,747 -4474,1756 -407,302 -737,649 -1070,1011 -1191,1292 -2306,3627 -2065,6174 118,1245 455,2192 936,3183 417,860 1158,1704 1835,2327 1331,1224 3611,2266 6160,2063 1711,-136 3190,-784 4453,-1759 443,-342 705,-615 1071,-1010 1217,-1317 2268,-3606 2063,-6159 -103,-1282 -468,-2199 -932,-3198 -366,-787 -1203,-1747 -1837,-2326 -1301,-1189 -3614,-2303 -6139,-2061z"/>
  <path class="fil1" d="M8488 6899c-549,60 -1150,105 -1671,219 -552,122 -1077,127 -1309,591 -265,530 46,1096 570,1150 691,72 3315,-1231 8366,374 484,154 901,368 1321,546 306,130 843,480 1263,-250 126,-220 130,-533 -4,-762 -123,-211 -300,-284 -551,-403 -2313,-1093 -5233,-1766 -7985,-1466z"/>
  <path class="fil1" d="M9459 10168c-1108,47 -1941,165 -2958,408 -517,124 -662,682 -592,1051 98,513 590,562 1120,426 1949,-497 4055,-417 5950,125 424,121 846,277 1219,437 359,154 958,515 1219,453 247,-58 663,-646 560,-1060 -99,-399 -623,-557 -977,-723 -1464,-688 -3644,-1197 -5540,-1117z"/>
  <path class="fil1" d="M9258 13279c-761,39 -1810,182 -2486,425 -438,157 -684,1207 -34,1401 598,179 3316,-1358 7216,646 1143,587 1244,-966 618,-1284 -1590,-808 -3311,-1290 -5313,-1188z"/>
  <path class="fil0" d="M18388 21794l3708 0 0 -3708c-120,225 -69,695 -446,1430 -1089,2121 -3023,2150 -3262,2278z"/>
  <path class="fil0" d="M22096 3391l0 -3681 -3708 0c234,130 1355,80 2475,1198 440,439 851,1043 1044,1708 36,126 63,232 92,361 71,307 2,190 85,388 3,6 8,18 13,26z"/>
  <path class="fil0" d="M12 3391l56 -161c14,-75 18,-145 35,-223 341,-1625 1594,-2867 3208,-3206l383 -90 -3681 0 0 3681z"/>
  <path class="fil0" d="M12 21794l3681 0 -382 -90c-403,-94 -638,-165 -1021,-355 -427,-212 -773,-479 -1062,-771 -563,-568 -957,-1259 -1125,-2081 -86,-419 -77,-337 -90,-358l0 3655z"/>
 </g>
</svg>
